REM DIRINDEX 1\2,1\3,1\4,1\5,1\6
REM DIRNAME cjc091,folder01,folder02,folder03,folder04,folder05
TITLE ""
FILE "CD1-07.mp3" MP3
  TRACK 01 AUDIO
    TITLE "6:cjc091_0188"
    INDEX 01 00:00:00
  TRACK 02 AUDIO
    TITLE "0:"
    INDEX 01 00:01:62
  TRACK 03 AUDIO
    TITLE "2:cjc091_0189"
    INDEX 01 00:03:10
  TRACK 04 AUDIO
    TITLE "0:"
    INDEX 01 00:04:62
  TRACK 05 AUDIO
    TITLE "3:cjc091_0190"
    INDEX 01 00:05:05
  TRACK 06 AUDIO
    TITLE "0:"
    INDEX 01 00:06:69
  TRACK 07 AUDIO
    TITLE "4:cjc091_0191"
    INDEX 01 00:07:15
  TRACK 08 AUDIO
    TITLE "4:cjc091_0192"
    INDEX 01 00:10:08
  TRACK 09 AUDIO
    TITLE "4:cjc091_0193"
    INDEX 01 00:11:64
  TRACK 10 AUDIO
    TITLE "0:"
    INDEX 01 00:13:69
  TRACK 11 AUDIO
    TITLE "2:cjc091_0194"
    INDEX 01 00:15:03
  TRACK 12 AUDIO
    TITLE "0:"
    INDEX 01 00:16:67
  TRACK 13 AUDIO
    TITLE "3:cjc091_0195"
    INDEX 01 00:17:04
  TRACK 14 AUDIO
    TITLE "0:"
    INDEX 01 00:18:39
  TRACK 15 AUDIO
    TITLE "4:cjc091_0196"
    INDEX 01 00:18:62
  TRACK 16 AUDIO
    TITLE "4:cjc091_0197"
    INDEX 01 00:20:53
  TRACK 17 AUDIO
    TITLE "4:cjc091_0198"
    INDEX 01 00:22:44
  TRACK 18 AUDIO
    TITLE "4:cjc091_0199"
    INDEX 01 00:24:55
  TRACK 19 AUDIO
    TITLE "0:"
    INDEX 01 00:28:64
  TRACK 20 AUDIO
    TITLE "2:cjc091_0200"
    INDEX 01 00:29:72
  TRACK 21 AUDIO
    TITLE "0:"
    INDEX 01 00:31:22
  TRACK 22 AUDIO
    TITLE "3:cjc091_0201"
    INDEX 01 00:31:43
  TRACK 23 AUDIO
    TITLE "0:"
    INDEX 01 00:33:11
  TRACK 24 AUDIO
    TITLE "4:cjc091_0202"
    INDEX 01 00:33:34
  TRACK 25 AUDIO
    TITLE "4:cjc091_0203"
    INDEX 01 00:37:03
  TRACK 26 AUDIO
    TITLE "4:cjc091_0204"
    INDEX 01 00:38:18
  TRACK 27 AUDIO
    TITLE "0:"
    INDEX 01 00:40:62
  TRACK 28 AUDIO
    TITLE "2:cjc091_0205"
    INDEX 01 00:41:65
  TRACK 29 AUDIO
    TITLE "0:"
    INDEX 01 00:43:42
  TRACK 30 AUDIO
    TITLE "3:cjc091_0206"
    INDEX 01 00:43:68
  TRACK 31 AUDIO
    TITLE "0:"
    INDEX 01 00:45:65
  TRACK 32 AUDIO
    TITLE "4:cjc091_0207"
    INDEX 01 00:46:19
  TRACK 33 AUDIO
    TITLE "4:cjc091_0208"
    INDEX 01 00:50:11
  TRACK 34 AUDIO
    TITLE "4:cjc091_0209"
    INDEX 01 00:51:38
  TRACK 35 AUDIO
    TITLE "0:"
    INDEX 01 00:54:72
  TRACK 36 AUDIO
    TITLE "2:cjc091_0210"
    INDEX 01 00:56:12
  TRACK 37 AUDIO
    TITLE "0:"
    INDEX 01 00:57:25
  TRACK 38 AUDIO
    TITLE "3:cjc091_0211"
    INDEX 01 00:57:50
  TRACK 39 AUDIO
    TITLE "0:"
    INDEX 01 00:59:53
  TRACK 40 AUDIO
    TITLE "4:cjc091_0212"
    INDEX 01 01:00:04
  TRACK 41 AUDIO
    TITLE "4:cjc091_0213"
    INDEX 01 01:04:48
  TRACK 42 AUDIO
    TITLE "4:cjc091_0214"
    INDEX 01 01:06:06
  TRACK 43 AUDIO
    TITLE "0:"
    INDEX 01 01:08:19
  TRACK 44 AUDIO
    TITLE "2:cjc091_0215"
    INDEX 01 01:09:30
  TRACK 45 AUDIO
    TITLE "0:"
    INDEX 01 01:11:09
  TRACK 46 AUDIO
    TITLE "3:cjc091_0216"
    INDEX 01 01:11:23
  TRACK 47 AUDIO
    TITLE "0:"
    INDEX 01 01:12:28
  TRACK 48 AUDIO
    TITLE "4:cjc091_0217"
    INDEX 01 01:12:54
  TRACK 49 AUDIO
    TITLE "4:cjc091_0218"
    INDEX 01 01:15:64
  TRACK 50 AUDIO
    TITLE "4:cjc091_0219"
    INDEX 01 01:17:71
  TRACK 51 AUDIO
    TITLE "4:cjc091_0220"
    INDEX 01 01:19:60
  TRACK 52 AUDIO
    TITLE "0:"
    INDEX 01 01:22:27
  TRACK 53 AUDIO
    TITLE "2:cjc091_0221"
    INDEX 01 01:23:30
  TRACK 54 AUDIO
    TITLE "0:"
    INDEX 01 01:24:65
  TRACK 55 AUDIO
    TITLE "3:cjc091_0222"
    INDEX 01 01:25:08
  TRACK 56 AUDIO
    TITLE "0:"
    INDEX 01 01:27:04
  TRACK 57 AUDIO
    TITLE "4:cjc091_0223"
    INDEX 01 01:27:34
  TRACK 58 AUDIO
    TITLE "4:cjc091_0224"
    INDEX 01 01:30:11
  TRACK 59 AUDIO
    TITLE "4:cjc091_0225"
    INDEX 01 01:31:63
  TRACK 60 AUDIO
    TITLE "0:"
    INDEX 01 01:34:40
  TRACK 61 AUDIO
    TITLE "2:cjc091_0226"
    INDEX 01 01:35:53
  TRACK 62 AUDIO
    TITLE "0:"
    INDEX 01 01:37:22
  TRACK 63 AUDIO
    TITLE "3:cjc091_0227"
    INDEX 01 01:37:28
  TRACK 64 AUDIO
    TITLE "0:"
    INDEX 01 01:38:49
  TRACK 65 AUDIO
    TITLE "4:cjc091_0228"
    INDEX 01 01:39:02
  TRACK 66 AUDIO
    TITLE "4:cjc091_0229"
    INDEX 01 01:41:46
  TRACK 67 AUDIO
    TITLE "4:cjc091_0230"
    INDEX 01 01:42:71
  TRACK 68 AUDIO
    TITLE "4:cjc091_0231"
    INDEX 01 01:44:40
  TRACK 69 AUDIO
    TITLE "4:cjc091_0232"
    INDEX 01 01:45:69
  TRACK 70 AUDIO
    TITLE "4:cjc091_0233"
    INDEX 01 01:48:18
  TRACK 71 AUDIO
    TITLE "0:"
    INDEX 01 01:50:19
  TRACK 72 AUDIO
    TITLE "2:cjc091_0234"
    INDEX 01 01:51:30
  TRACK 73 AUDIO
    TITLE "0:"
    INDEX 01 01:52:71
  TRACK 74 AUDIO
    TITLE "3:cjc091_0235"
    INDEX 01 01:53:18
  TRACK 75 AUDIO
    TITLE "0:"
    INDEX 01 01:55:28
  TRACK 76 AUDIO
    TITLE "4:cjc091_0236"
    INDEX 01 01:55:56
  TRACK 77 AUDIO
    TITLE "4:cjc091_0237"
    INDEX 01 01:58:46
  TRACK 78 AUDIO
    TITLE "4:cjc091_0238"
    INDEX 01 02:01:58
  TRACK 79 AUDIO
    TITLE "0:"
    INDEX 01 02:03:65
  TRACK 80 AUDIO
    TITLE "2:cjc091_0239"
    INDEX 01 02:04:68
  TRACK 81 AUDIO
    TITLE "0:"
    INDEX 01 02:06:61
  TRACK 82 AUDIO
    TITLE "3:cjc091_0240"
    INDEX 01 02:07:08
  TRACK 83 AUDIO
    TITLE "0:"
    INDEX 01 02:09:26
  TRACK 84 AUDIO
    TITLE "4:cjc091_0241"
    INDEX 01 02:09:58
  TRACK 85 AUDIO
    TITLE "4:cjc091_0242"
    INDEX 01 02:12:48
  TRACK 86 AUDIO
    TITLE "4:cjc091_0243"
    INDEX 01 02:14:71
  TRACK 87 AUDIO
    TITLE "4:cjc091_0244"
    INDEX 01 02:17:38
  TRACK 88 AUDIO
    TITLE "4:cjc091_0245"
    INDEX 01 02:19:25
  TRACK 89 AUDIO
    TITLE "0:"
    INDEX 01 02:23:15
